<?xml version="1.0" encoding="utf-8"?>
<!-- Generator: Adobe Illustrator 25.2.0, SVG Export Plug-In . SVG Version: 6.00 Build 0)  -->
<svg version="1.1" id="Calque_1" xmlns="http://www.w3.org/2000/svg" xmlns:xlink="http://www.w3.org/1999/xlink" x="0px" y="0px"
	 viewBox="0 0 50 50" style="enable-background:new 0 0 50 50;" xml:space="preserve">
<style type="text/css">
	.st0{fill:#FFFFFF;}
</style>
<path class="st0" d="M15.8,20.5c0.9,0.4,1.8,0.5,2.8,0.5c1.5,0,2.7-0.3,3.7-1c1-0.7,1.8-1.6,2.3-2.8c0.4-0.8,0.6-1.7,0.7-2.7l2,0
	c0.1,1,0.4,2,0.9,2.8c0.7,1.2,1.5,2.1,2.7,2.7c1.1,0.7,2.4,1,3.9,1c2,0,3.7-0.5,5-1.4c1.3-1,2.1-2.3,2.4-3.9h-4.1
	c-0.2,0.5-0.5,0.9-1.1,1.2c-0.6,0.3-1.3,0.4-2.1,0.4c-1.2,0-2-0.3-2.6-1c-0.4-0.5-0.6-1.1-0.8-1.9l10.6,0v-1.1c0-1.6-0.3-3-0.9-4.1
	c-0.6-1.2-1.5-2.1-2.6-2.7c-1.1-0.6-2.4-1-4-1c-1.5,0-2.8,0.3-3.9,1c-1.1,0.7-2,1.6-2.6,2.7c-0.4,0.8-0.7,1.6-0.8,2.5h-2
	c-0.1-1-0.4-1.9-0.8-2.7c-0.6-1.1-1.4-2-2.4-2.6c-1-0.6-2.2-0.9-3.6-0.9c-1,0-2,0.2-2.8,0.6c-0.9,0.4-1.5,1-1.9,1.6L13.7,6H9.4v5.7
	h4.8c0.1-0.1,0.1-0.2,0.2-0.3c0.3-0.5,0.7-1,1.3-1.3c0.5-0.3,1.2-0.5,1.8-0.5c0.7,0,1.3,0.2,1.9,0.5c0.5,0.3,0.9,0.7,1.2,1.3
	c0.1,0.1,0.1,0.2,0.1,0.3c0.2,0.5,0.3,1,0.3,1.6c0,0.4,0,0.8-0.1,1.2c-0.1,0.3-0.2,0.5-0.3,0.7c-0.3,0.5-0.7,1-1.2,1.3
	c-0.5,0.3-1.1,0.5-1.9,0.5c-0.7,0-1.3-0.1-1.8-0.5c-0.5-0.3-1-0.7-1.3-1.3c-0.1-0.2-0.2-0.5-0.3-0.7l-4.7,0v2.1v11v11h4.5v-8
	c0-0.6,0.1-1.1,0.4-1.6c0.2-0.4,0.6-0.8,1-1c0.4-0.2,0.9-0.4,1.5-0.4c0.5,0,1,0.1,1.4,0.4c0.4,0.3,0.7,0.6,0.9,1.1
	c0.2,0.4,0.3,1,0.3,1.6v7.9c0.1,5.6,4.6,10.2,10,10.4c5.7,0.2,10.8-4.4,10.9-10.4v-8.5c0-1.4-0.3-2.6-0.8-3.6
	c-0.5-1-1.3-1.7-2.3-2.2c-1-0.5-2.2-0.8-3.6-0.8c-1.4,0-2.6,0.2-3.6,0.7c-1,0.4-1.8,1.1-2.4,1.9c-0.6,0.8-0.8,1.8-0.8,2.9h3.7
	c0-0.7,0.3-1.2,0.7-1.5c0.5-0.3,1.2-0.5,2.2-0.5c0.5,0,1,0.1,1.4,0.2s0.6,0.4,0.8,0.7c0.2,0.3,0.3,0.7,0.3,1.2v0.2l-4.1,0.3
	c-1.8,0.1-3.1,0.6-4,1.4c-0.9,0.8-1.4,1.9-1.4,3.2c0,1.4,0.5,2.6,1.4,3.4c0.9,0.8,2.1,1.3,3.7,1.3c1.1,0,2.1-0.2,2.9-0.7
	c0.9-0.4,1.4-1,1.6-1.6c0,0.6,0,1.3,0,1.9c-0.2,3.3-3,5.8-6.2,5.7c-3.1-0.1-5.7-2.5-6-5.7v-9c0-1.9-0.5-3.4-1.4-4.5
	c-1-1.1-2.3-1.6-4-1.6c-1,0-1.8,0.2-2.6,0.5c-0.8,0.3-1.4,0.8-1.8,1.5v-6.3C14.4,19.7,15,20.2,15.8,20.5z M31.9,11
	c0.2-0.6,0.6-1.1,1.1-1.4c0.5-0.3,1.1-0.4,1.9-0.4c0.9,0,1.6,0.2,2.2,0.7c0.5,0.5,0.8,1.1,0.8,1.9h-6.1C31.7,11.5,31.8,11.2,31.9,11
	z M36,33.2c0,0.8-0.3,1.5-0.8,1.9c-0.5,0.4-1.2,0.6-2.1,0.6c-0.7,0-1.2-0.1-1.5-0.4c-0.3-0.3-0.5-0.6-0.5-1.2c0-0.5,0.2-0.8,0.6-1.1
	c0.4-0.2,1.1-0.4,2.1-0.5l2.3-0.2V33.2z"/>
</svg>
