<?xml version="1.0" encoding="utf-8"?>
<!-- Generator: Adobe Illustrator 25.0.0, SVG Export Plug-In . SVG Version: 6.00 Build 0)  -->
<svg version="1.1" id="Calque_1" xmlns="http://www.w3.org/2000/svg" xmlns:xlink="http://www.w3.org/1999/xlink" x="0px" y="0px"
	 viewBox="0 0 1181 235" style="enable-background:new 0 0 1181 235;" xml:space="preserve">
<style type="text/css">
	.st0{fill:#3684DB;}
	.st1{fill:#FFFFFF;}
</style>
<g>
	<g>
		<path class="st0" d="M26.8,172.8l64.1-120c3.2-4.9,17-24.2,43.4-30.8c21-5.2,38.2,0.5,44.5,2.9c-7,2.9-12.4,6.1-16.1,8.4
			c-7.2,4.6-18.2,11.7-26.1,25c-1.4,2.3-2.3,4.2-2.8,5.2c0,0-44.6,92.9-73.6,137.7c-1.2,1.8-4.2,6.3-9.7,8.4c-7.9,3-16-0.4-20.3-4.1
			C22.2,198.8,20.3,185.1,26.8,172.8z"/>
		<path class="st0" d="M232.8,187.8c1.1,12-7.5,23.9-19.5,26.7c-13.2,3.1-23.3-6.5-24.1-7.2c-19.1-16.3-38.3-32.7-57.4-49
			c-6.8-6.4-9.8-12.6-11.2-17.1c-6.9-21.3,6.1-48.8,32.8-68.6c-1.9,2.5-4.3,6.5-5.2,11.8c-1.4,8.1,1.9,16.3,9.3,26.4
			c18.4,24.7,57.5,53.6,64,58.3C222.9,170.1,231.8,176.5,232.8,187.8z"/>
		<circle class="st0" cx="195.9" cy="80.4" r="32.8"/>
	</g>
	<g>
		<path class="st1" d="M294.4,158.7V76.3h11.4v43.6l41.9-43.6h14.2l-31.3,32.9l32.4,49.4h-13.6l-26.8-41.3l-16.8,15.8v25.4h-11.4
			V158.7z"/>
		<path class="st1" d="M406.2,158.7V76.3h43.3c5.6,0,10.3,1,14,3.1s6.5,4.9,8.3,8.5s2.8,7.8,2.8,12.5c0,5.7-1.3,10.6-3.8,14.6
			c-2.6,4.1-6.1,7-10.6,8.8l17.3,34.8H465l-16.1-32.8h-31.3v32.8L406.2,158.7L406.2,158.7z M417.6,116.2h30.8
			c4.6,0,8.1-1.4,10.7-4.2c2.6-2.8,3.9-6.6,3.9-11.5c0-3-0.6-5.6-1.7-7.7s-2.8-3.7-4.9-4.9c-2.2-1.2-4.8-1.7-8-1.7h-30.8V116.2z"/>
		<path class="st1" d="M525.8,158.7V76.3h63.4v9.8h-52v25.4h46.7v9.8h-46.7v27.4h52.7v9.8h-64.1V158.7z"/>
		<path class="st1" d="M669.7,160.1c-4.5,0-8.8-0.4-12.9-1.3c-4.1-0.9-7.8-2.3-11-4.3s-5.7-4.5-7.6-7.6c-1.9-3.1-2.8-7-2.8-11.5
			c0-0.4,0-0.8,0.1-1.2c0-0.4,0.1-0.8,0.1-1.2H647c0,0.2,0,0.6-0.1,1.1c0,0.5-0.1,1-0.1,1.4c0,3.2,1,5.9,2.9,8.2
			c1.9,2.2,4.6,3.9,8,5s7.3,1.6,11.6,1.6c1.9,0,3.9-0.1,6.1-0.4c2.1-0.2,4.2-0.7,6.1-1.3c2-0.6,3.7-1.4,5.3-2.4s2.8-2.2,3.7-3.7
			s1.4-3.3,1.4-5.5c0-2.7-0.8-5-2.3-6.8c-1.6-1.8-3.6-3.3-6.2-4.4c-2.6-1.2-5.5-2.2-8.7-3.1s-6.6-1.8-10-2.7
			c-3.4-0.9-6.8-1.9-10-3.1s-6.1-2.6-8.7-4.3c-2.6-1.7-4.6-3.9-6.2-6.4c-1.6-2.6-2.3-5.7-2.3-9.4c0-3.4,0.7-6.5,2.1-9.2
			c1.4-2.7,3.5-5,6.2-6.9c2.8-1.9,6.2-3.3,10.3-4.3s8.8-1.5,14-1.5c4.3,0,8.3,0.5,12.1,1.4c3.7,0.9,7,2.3,9.8,4.2
			c2.8,1.9,5.1,4.3,6.7,7.1c1.6,2.9,2.4,6.4,2.4,10.4v1.4h-11.3v-1.8c0-2.7-0.8-5-2.5-7s-4-3.4-6.9-4.4s-6.2-1.6-9.9-1.6
			c-4.8,0-8.8,0.5-12,1.4s-5.6,2.2-7.1,4c-1.6,1.7-2.3,3.7-2.3,5.8c0,2.5,0.8,4.6,2.3,6.2c1.6,1.7,3.6,3.1,6.2,4.1
			c2.6,1.1,5.5,2.1,8.8,2.9c3.3,0.9,6.6,1.8,10,2.7c3.4,0.9,6.7,2,10,3.1c3.2,1.2,6.2,2.6,8.8,4.3c2.6,1.7,4.7,3.9,6.2,6.5
			c1.5,2.6,2.3,5.8,2.3,9.5c0,5.8-1.4,10.6-4.3,14.2c-2.9,3.6-6.8,6.3-11.9,8S676.4,160.1,669.7,160.1z"/>
		<path class="st1" d="M772.8,158.7V86.3h-28.2v-10h68v10h-28.4v72.4L772.8,158.7L772.8,158.7z"/>
		<path class="st1" d="M857.8,158.7V76.3h30.7c8.6,0,16,1.4,22.1,4.3s10.7,7.3,14,13.4c3.2,6,4.9,13.9,4.9,23.5
			c0,9.4-1.6,17.2-4.9,23.3c-3.2,6.1-7.9,10.6-14,13.5s-13.4,4.4-22.1,4.4H857.8z M869.2,148.8h19.1c4.6,0,8.6-0.6,12.2-1.7
			c3.6-1.2,6.7-2.9,9.2-5.3c2.6-2.4,4.5-5.5,5.8-9.3s2-8.3,2-13.6v-2.4c0-5.4-0.7-10.1-2-13.9s-3.2-6.9-5.8-9.3
			c-2.5-2.4-5.6-4.2-9.2-5.3c-3.6-1.2-7.7-1.7-12.4-1.7H869v62.5H869.2z"/>
		<path class="st1" d="M978.2,158.7V76.3h63.4v9.8h-52v25.4h46.7v9.8h-46.7v27.4h52.7v9.8h-64.1V158.7z"/>
		<path class="st1" d="M1113.5,158.7l-30.7-82.3h12.4l21.1,58.3c0.5,1.1,1,2.4,1.4,3.8c0.5,1.4,1,2.8,1.4,4.2
			c0.5,1.4,0.9,2.6,1.3,3.6h0.7c0.3-1,0.7-2.1,1.2-3.5s1-2.7,1.4-4.1c0.5-1.4,1-2.7,1.4-4l20.9-58.3h12l-30.8,82.3H1113.5z"/>
	</g>
</g>
<circle class="st0" cx="821" cy="152" r="7"/>
</svg>
