<?xml version="1.0" encoding="utf-8"?>
<!-- Generator: Adobe Illustrator 25.2.0, SVG Export Plug-In . SVG Version: 6.00 Build 0)  -->
<svg version="1.1" id="Calque_1" xmlns="http://www.w3.org/2000/svg" xmlns:xlink="http://www.w3.org/1999/xlink" x="0px" y="0px"
	 viewBox="0 0 80 80" style="enable-background:new 0 0 80 80;" xml:space="preserve">
<style type="text/css">
	.st0{fill:#172137;}
	.st1{fill:#CD1D32;}
</style>
<g>
	<path class="st0" d="M77.7,3.3v73.4c0,0.6-0.4,1-1,1H3.3c-0.5,0-1-0.4-1-1V3.3c0-0.6,0.5-1,1-1h73.4C77.3,2.3,77.7,2.7,77.7,3.3z"
		/>
	<path class="st1" d="M76.8,0H3.2C1.4,0,0,1.4,0,3.2v73.6C0,78.6,1.4,80,3.2,80h73.6c1.8,0,3.2-1.4,3.2-3.2V3.2
		C80,1.4,78.6,0,76.8,0z M75.4,34.4L45.6,4.6h29.8V34.4z M74.5,40L40,74.5L5.5,40L40,5.5L74.5,40z M34.4,4.6L4.6,34.4V4.6H34.4z
		 M4.6,45.6l29.8,29.8H4.6V45.6z M45.6,75.4l29.8-29.8v29.8H45.6z"/>
	<g>
		<path class="st1" d="M48.4,29.7h0.9c1.7,0,3.1-1.4,3.1-3.1c0-1.7-1.4-3.1-3.1-3.1h-0.9c-1.7,0-3.1,1.4-3.1,3.1
			C45.3,28.3,46.7,29.7,48.4,29.7z"/>
		<path class="st1" d="M45.3,32.4v2.8H34.7V23.5h-7.2v29.7h7.2V40.8h10.5V56c0,2-1,2.9-2.9,2.9c-0.5,0-1.2-0.1-2-0.2v5.4
			c1.1,0.2,2.2,0.4,3.4,0.4c2.7,0,4.9-0.7,6.4-2.2c1.5-1.5,2.3-3.5,2.3-6.2V32.4H45.3L45.3,32.4z"/>
	</g>
</g>
</svg>
