<?xml version="1.0" encoding="utf-8"?>
<!-- Generator: Adobe Illustrator 25.2.0, SVG Export Plug-In . SVG Version: 6.00 Build 0)  -->
<svg version="1.1" id="Calque_1" xmlns="http://www.w3.org/2000/svg" xmlns:xlink="http://www.w3.org/1999/xlink" x="0px" y="0px"
	 viewBox="0 0 80 80" style="enable-background:new 0 0 80 80;" xml:space="preserve">
<style type="text/css">
	.st0{fill:#172137;}
	.st1{fill:#EFB533;}
</style>
<g>
	<path class="st0" d="M70,80H10C4.5,80,0,75.5,0,70l0-60C0,4.5,4.5,0,10,0l60,0c5.5,0,10,4.5,10,10v60C80,75.5,75.5,80,70,80z"/>
	<g>
		<path class="st1" d="M67.8,27.9v27.8H57.5V41.8H37.3v22.8h-8.1V41.8h-6.8v13.9H12.2V27.9h10.3v12.3h20.1V23.5
			c-0.1-1.4-1.3-2.6-2.7-2.5c-1.3,0-2.5,1.1-2.5,2.5c0,5,0,10,0,15h-8.1V15.4h21.4v24.8h6.9V27.9H67.8z"/>
		<rect x="42.6" y="43.4" class="st1" width="8.1" height="21.2"/>
	</g>
</g>
</svg>
