<?xml version="1.0" encoding="utf-8"?>
<!-- Generator: Adobe Illustrator 25.2.0, SVG Export Plug-In . SVG Version: 6.00 Build 0)  -->
<svg version="1.1" id="Calque_1" xmlns="http://www.w3.org/2000/svg" xmlns:xlink="http://www.w3.org/1999/xlink" x="0px" y="0px"
	 viewBox="0 0 121.7 121" style="enable-background:new 0 0 121.7 121;" xml:space="preserve">
<style type="text/css">
	.st0{fill:#CE2337;}
	.st1{fill:#4B5665;}
	.st2{fill:#1A8DA8;}
	.st3{fill:#F29303;}
</style>
<g>
	<path class="st0" d="M121.6,46.4c0,11.4,0,22.8,0,34.2c0,1.1-0.4,1.2-1.3,0.9c-3.7-1.1-7.5-2.3-11.2-3.4
		c-5.9-1.7-11.7-3.7-17.6-5.6c-7.6-2.5-15-5.3-22-9.1c-2.9-1.5-5.5-3.4-7.7-5.9c-1.3-1.4-2-3.1-2.1-5.1c-0.2-4.7,1.8-8.4,4.5-11.9
		c2.4-3.2,5.3-5.9,8.2-8.6c2.5-2.4,5.2-4.4,7.8-6.6c2.8-2.3,5.4-4.7,7.9-7.3c2.6-2.7,5-5.6,6.9-8.9c1.3-2.1,2.2-4.5,2.2-7
		c0-0.6,0.3-1.2,0.3-1.8c-0.1-0.5,0.4-0.4,0.7-0.4c4.3,0.1,8.6-0.3,12.9,0.3c4.4,0.6,9.3,5.4,10.1,9.9c0.3,1.6,0.4,3.1,0.4,4.7
		C121.6,25.2,121.6,35.8,121.6,46.4C121.6,46.4,121.6,46.4,121.6,46.4z"/>
	<path class="st1" d="M27.7,121.3c1.5-1.1,3.1-1.8,4.3-3.1c2.1-2.3,3.1-5.1,3.5-8.2c0.5-3.7,0.7-7.5,1.3-11.3
		c0.8-4.6,1.8-9.1,3.8-13.4c0.9-1.9,2-3.6,3.6-5c1.5-1.2,3.2-0.8,4.8-0.4c3.8,0.9,7.3,2.6,10.9,4.1c10.2,4.3,20.1,9.4,30.3,13.6
		c7.4,3.1,15,5.8,22.9,7.7c2.4,0.6,4.9,0.8,7.4,0.8c0.8,0,1,0.2,1,1c0.2,7-4,12.4-10.9,14.1c-0.8,0.2-1.7,0.1-2.5,0.1
		c-26.5,0-53,0-79.5,0C28.4,121.3,28.1,121.3,27.7,121.3z"/>
	<path class="st2" d="M60-0.2C52,8.5,45.9,18.1,40.5,28.2c-3.5,6.6-6.6,13.4-9.4,20.4c-0.4,1.1-1,2.1-1.5,3.1
		c-1.1,1.9-2.6,1.9-3.6,0c-1.1-2.2-2-4.5-2.7-6.9c-0.9-3.1-1.8-6.2-2.7-9.3c-1.2-4.4-2.4-8.8-3.9-13.1c-1.2-3.3-2.9-6.2-5-8.9
		c-1.2-1.6-2.6-2.9-4.4-3.9c-1.7-0.9-3.5-1-5.4-0.9C0.8,8.7,0.7,8.3,1.1,7.5c2.3-4.8,6.1-7.6,11.5-7.7c15.6-0.1,31.2,0,46.7,0
		C59.5-0.2,59.6-0.2,60-0.2z"/>
	<path class="st3" d="M18.4,121.3c-3.4-0.1-6.7,0.4-10-0.8c-4.2-1.6-8.1-6.4-8.3-10.9C0,107.8,0,106.1,0,104.3c0-18.4,0-36.8,0-55.5
		c1.1,2.8,1.7,5.4,2.3,8c2,7.4,3.8,14.9,5.5,22.4c1.4,6.4,2.8,12.9,4,19.4c1.1,5.7,1.9,11.4,2.9,17c0.4,2.2,1.2,4.3,3.5,5.4
		C18.3,121.1,18.4,121.2,18.4,121.3z"/>
</g>
</svg>
